<?xml version="1.0" encoding="UTF-8" standalone="no"?>
<!-- Created with Inkscape (http://www.inkscape.org/) -->

<svg
   xmlns:dc="http://purl.org/dc/elements/1.1/"
   xmlns:cc="http://creativecommons.org/ns#"
   xmlns:rdf="http://www.w3.org/1999/02/22-rdf-syntax-ns#"
   xmlns:svg="http://www.w3.org/2000/svg"
   xmlns="http://www.w3.org/2000/svg"
   xmlns:sodipodi="http://sodipodi.sourceforge.net/DTD/sodipodi-0.dtd"
   xmlns:inkscape="http://www.inkscape.org/namespaces/inkscape"
   version="1.1"
   id="svg2"
   xml:space="preserve"
   width="45.074532"
   height="43.495468"
   viewBox="0 0 45.074532 43.495468"
   sodipodi:docname="favorit.svg"
   inkscape:version="0.92.2 (5c3e80d, 2017-08-06)"><metadata
     id="metadata8"><rdf:RDF><cc:Work
         rdf:about=""><dc:format>image/svg+xml</dc:format><dc:type
           rdf:resource="http://purl.org/dc/dcmitype/StillImage" /><dc:title></dc:title></cc:Work></rdf:RDF></metadata><defs
     id="defs6"><clipPath
       clipPathUnits="userSpaceOnUse"
       id="clipPath18"><path
         d="M 0,32.622 H 33.806 V 0 H 0 Z"
         id="path16"
         inkscape:connector-curvature="0" /></clipPath></defs><sodipodi:namedview
     pagecolor="#ffffff"
     bordercolor="#666666"
     borderopacity="1"
     objecttolerance="10"
     gridtolerance="10"
     guidetolerance="10"
     inkscape:pageopacity="0"
     inkscape:pageshadow="2"
     inkscape:window-width="640"
     inkscape:window-height="480"
     id="namedview4"
     showgrid="false"
     inkscape:zoom="5.4258526"
     inkscape:cx="22.537266"
     inkscape:cy="21.747734"
     inkscape:window-x="0"
     inkscape:window-y="0"
     inkscape:window-maximized="0"
     inkscape:current-layer="g10" /><g
     id="g10"
     inkscape:groupmode="layer"
     inkscape:label="Vector Smart Object11"
     transform="matrix(1.3333333,0,0,-1.3333333,0,43.495467)"><g
       id="g12"><g
         id="g14"
         clip-path="url(#clipPath18)"><g
           id="g20"
           transform="translate(23.9494,23.3354)"><path
             d="m 0,0 6.84,-2.119 c 1.445,-0.448 1.989,-2.207 1.05,-3.393 l -4.444,-5.614 c -0.307,-0.388 -0.471,-0.871 -0.465,-1.366 l 0.098,-7.159 C 3.1,-21.164 1.596,-22.225 0.178,-21.699 l -6.713,2.492 c -0.465,0.172 -0.974,0.18 -1.443,0.02 l -6.779,-2.306 c -1.431,-0.486 -2.906,0.616 -2.844,2.127 l 0.296,7.155 c 0.02,0.494 -0.131,0.981 -0.427,1.378 l -4.288,5.734 c -0.905,1.212 -0.312,2.955 1.145,3.363 l 6.895,1.929 c 0.477,0.134 0.893,0.427 1.179,0.832 l 4.129,5.85 C -7.8,8.11 -5.959,8.085 -5.121,6.826 L -1.155,0.864 C -0.881,0.452 -0.473,0.146 0,0 Z"
             style="fill:none;stroke:#b3bac1;stroke-width:3;stroke-linecap:round;stroke-linejoin:round;stroke-miterlimit:10;stroke-dasharray:none;stroke-opacity:1"
             id="path22"
             inkscape:connector-curvature="0" /></g><g
           id="g24"
           transform="translate(20.1575,12.8931)"><path
             d="M 0,0 C -1.357,-1.775 -3.897,-2.114 -5.672,-0.757 -7.448,0.601 -7.787,3.14 -6.429,4.915 -5.072,6.69 -2.532,7.029 -0.757,5.672 1.019,4.315 1.357,1.775 0,0 Z"
             style="fill:none;stroke:#ff8600;stroke-width:3;stroke-linecap:butt;stroke-linejoin:miter;stroke-miterlimit:10;stroke-dasharray:none;stroke-opacity:1"
             id="path26"
             inkscape:connector-curvature="0" /></g></g></g></g></svg>