<!-- <?xml version="1.0" encoding="UTF-8" standalone="no"?>
Created with Inkscape (http://www.inkscape.org/) -->

<svg
   xmlns:dc="http://purl.org/dc/elements/1.1/"
   xmlns:cc="http://creativecommons.org/ns#"
   xmlns:rdf="http://www.w3.org/1999/02/22-rdf-syntax-ns#"
   xmlns:svg="http://www.w3.org/2000/svg"
   xmlns="http://www.w3.org/2000/svg"
   xmlns:sodipodi="http://sodipodi.sourceforge.net/DTD/sodipodi-0.dtd"
   xmlns:inkscape="http://www.inkscape.org/namespaces/inkscape"
   version="1.1"
   id="svg2"
   xml:space="preserve"
   width="21.333332"
   height="20"
   viewBox="0 0 21.333332 20"
   sodipodi:docname="head-bt.svg"
   inkscape:version="0.92.2 (5c3e80d, 2017-08-06)"><metadata
     id="metadata8"><rdf:RDF><cc:Work
         rdf:about=""><dc:format>image/svg+xml</dc:format><dc:type
           rdf:resource="http://purl.org/dc/dcmitype/StillImage" /><dc:title></dc:title></cc:Work></rdf:RDF></metadata><defs
     id="defs6"><clipPath
       clipPathUnits="userSpaceOnUse"
       id="clipPath18"><path
         d="M 0,15 H 16 V 0 H 0 Z"
         id="path16"
         inkscape:connector-curvature="0" /></clipPath></defs><sodipodi:namedview
     pagecolor="#ffffff"
     bordercolor="#666666"
     borderopacity="1"
     objecttolerance="10"
     gridtolerance="10"
     guidetolerance="10"
     inkscape:pageopacity="0"
     inkscape:pageshadow="2"
     inkscape:window-width="1920"
     inkscape:window-height="1017"
     id="namedview4"
     showgrid="false"
     inkscape:zoom="11.8"
     inkscape:cx="10.666666"
     inkscape:cy="4.6158348"
     inkscape:window-x="-8"
     inkscape:window-y="-8"
     inkscape:window-maximized="1"
     inkscape:current-layer="g12" /><g
     id="g10"
     inkscape:groupmode="layer"
     inkscape:label="Vector Smart Object"
     transform="matrix(1.3333333,0,0,-1.3333333,0,20)"><g
       id="g12"><g
         id="g14"
         clip-path="url(#clipPath18)"><g
           id="g20"
           transform="translate(8,15)"><path
             d="m 0,0 c -2.2,0 -4,-1.8 -4,-4 v -2 c 0,-0.14 0.027,-0.272 0.042,-0.409 C -6.319,-7.302 -8,-9.577 -8,-12.25 V -15 H 8 v 2.75 C 8,-9.577 6.319,-7.302 3.958,-6.409 3.973,-6.272 4,-6.14 4,-6 v 2 C 4,-1.8 2.2,0 0,0 m 0,-1.5 c 1.378,0 2.5,-1.122 2.5,-2.5 V -5.982 C 2.498,-6.013 2.493,-6.043 2.489,-6.074 2.48,-6.133 2.473,-6.193 2.466,-6.253 L 2.347,-7.403 3.428,-7.812 C 5.265,-8.507 6.5,-10.291 6.5,-12.25 v -1.25 h -13 v 1.25 c 0,1.959 1.235,3.743 3.072,4.438 l 1.081,0.409 -0.119,1.15 c -0.007,0.06 -0.014,0.12 -0.023,0.179 C -2.493,-6.043 -2.498,-6.013 -2.5,-6 v 2 c 0,1.378 1.122,2.5 2.5,2.5"
             style="fill:#fff;fill-opacity:1;fill-rule:nonzero;stroke:none"
             id="path22"
             inkscape:connector-curvature="0" /></g></g></g></g></svg>