<?xml version="1.0" encoding="UTF-8" standalone="no"?>
<svg
   xmlns:dc="http://purl.org/dc/elements/1.1/"
   xmlns:cc="http://creativecommons.org/ns#"
   xmlns:rdf="http://www.w3.org/1999/02/22-rdf-syntax-ns#"
   xmlns:svg="http://www.w3.org/2000/svg"
   xmlns="http://www.w3.org/2000/svg"
   xmlns:sodipodi="http://sodipodi.sourceforge.net/DTD/sodipodi-0.dtd"
   xmlns:inkscape="http://www.inkscape.org/namespaces/inkscape"
   width="11.8118pt"
   height="16.2585pt"
   viewBox="0 0 11.8118 16.2585"
   version="1.2"
   id="svg12"
   sodipodi:docname="phone.svg"
   inkscape:version="0.92.2 (5c3e80d, 2017-08-06)">
  <metadata
     id="metadata16">
    <rdf:RDF>
      <cc:Work
         rdf:about="">
        <dc:format>image/svg+xml</dc:format>
        <dc:type
           rdf:resource="http://purl.org/dc/dcmitype/StillImage" />
        <dc:title></dc:title>
      </cc:Work>
    </rdf:RDF>
  </metadata>
  <sodipodi:namedview
     pagecolor="#ffffff"
     bordercolor="#666666"
     borderopacity="1"
     objecttolerance="10"
     gridtolerance="10"
     guidetolerance="10"
     inkscape:pageopacity="0"
     inkscape:pageshadow="2"
     inkscape:window-width="640"
     inkscape:window-height="480"
     id="namedview14"
     showgrid="false"
     inkscape:zoom="10.886614"
     inkscape:cx="7.8745333"
     inkscape:cy="10.838999"
     inkscape:window-x="0"
     inkscape:window-y="0"
     inkscape:window-maximized="0"
     inkscape:current-layer="svg12" />
  <defs
     id="defs5">
    <clipPath
       id="clip1">
      <path
         d="M 0 0 L 11.8125 0 L 11.8125 16.257813 L 0 16.257813 Z M 0 0 "
         id="path2" />
    </clipPath>
  </defs>
  <g
     id="surface54">
    <g
       clip-path="url(#clip1)"
       clip-rule="nonzero"
       id="g9">
      <path
         style="fill:#f9f9f9;fill-opacity:1;fill-rule:nonzero;stroke:none"
         d="M 4.410156,0 3.234375,0.308594 C 0.554688,1.015625 -0.0507813,3.617188 0.00390625,4.894531 0.214844,9.222656 3.660156,13.707031 4.96875,15.070313 c 0.746094,0.777343 1.714844,1.1875 2.808594,1.1875 1.507812,0 2.765625,-0.789063 2.902344,-0.882813 L 11.8125,14.640625 11.199219,13.4375 9.449219,10.007813 8.769531,8.679688 7.4375,9.351563 7.414063,9.363281 5.960938,6.460938 5.992188,6.441406 7.304688,5.761719 6.640625,4.4375 4.957031,1.085938 Z m -0.792968,1.761719 1.683593,3.351562 -1.339843,0.695313 2.785156,5.570312 1.367187,-0.6875 1.75,3.429688 c 0,0 -0.980468,0.636719 -2.085937,0.636719 -0.582031,0 -1.203125,-0.179688 -1.726563,-0.726563 C 4.726563,12.65625 1.679688,8.503906 1.5,4.832031 c 0,0 -0.101562,-2.488281 2.117188,-3.070312"
         id="path7"
         inkscape:connector-curvature="0" />
    </g>
  </g>
</svg>
