<?xml version="1.0" encoding="UTF-8" standalone="no"?>
<svg
   xmlns:dc="http://purl.org/dc/elements/1.1/"
   xmlns:cc="http://creativecommons.org/ns#"
   xmlns:rdf="http://www.w3.org/1999/02/22-rdf-syntax-ns#"
   xmlns:svg="http://www.w3.org/2000/svg"
   xmlns="http://www.w3.org/2000/svg"
   xmlns:sodipodi="http://sodipodi.sourceforge.net/DTD/sodipodi-0.dtd"
   xmlns:inkscape="http://www.inkscape.org/namespaces/inkscape"
   width="37.2947pt"
   height="37.2947pt"
   viewBox="0 0 37.2947 37.2947"
   version="1.2"
   id="svg48"
   sodipodi:docname="year.svg"
   inkscape:version="0.92.2 (5c3e80d, 2017-08-06)">
  <metadata
     id="metadata52">
    <rdf:RDF>
      <cc:Work
         rdf:about="">
        <dc:format>image/svg+xml</dc:format>
        <dc:type
           rdf:resource="http://purl.org/dc/dcmitype/StillImage" />
        <dc:title></dc:title>
      </cc:Work>
    </rdf:RDF>
  </metadata>
  <sodipodi:namedview
     pagecolor="#ffffff"
     bordercolor="#666666"
     borderopacity="1"
     objecttolerance="10"
     gridtolerance="10"
     guidetolerance="10"
     inkscape:pageopacity="0"
     inkscape:pageshadow="2"
     inkscape:window-width="640"
     inkscape:window-height="480"
     id="namedview50"
     showgrid="false"
     inkscape:zoom="4.7459826"
     inkscape:cx="24.863134"
     inkscape:cy="24.863134"
     inkscape:window-x="0"
     inkscape:window-y="0"
     inkscape:window-maximized="0"
     inkscape:current-layer="svg48" />
  <defs
     id="defs17">
    <clipPath
       id="clip1">
      <path
         d="M 0 0 L 37.292969 0 L 37.292969 37.292969 L 0 37.292969 Z M 0 0 "
         id="path2" />
    </clipPath>
    <clipPath
       id="clip2">
      <path
         d="M 17 27 L 21 27 L 21 37.292969 L 17 37.292969 Z M 17 27 "
         id="path5" />
    </clipPath>
    <clipPath
       id="clip3">
      <path
         d="M 0 0 L 37.292969 0 L 37.292969 37.292969 L 0 37.292969 Z M 0 0 "
         id="path8" />
    </clipPath>
    <clipPath
       id="clip4">
      <path
         d="M 27 17 L 37.292969 17 L 37.292969 21 L 27 21 Z M 27 17 "
         id="path11" />
    </clipPath>
    <clipPath
       id="clip5">
      <path
         d="M 0 0 L 37.292969 0 L 37.292969 37.292969 L 0 37.292969 Z M 0 0 "
         id="path14" />
    </clipPath>
  </defs>
  <g
     id="surface36">
    <g
       clip-path="url(#clip1)"
       clip-rule="nonzero"
       id="g21">
      <path
         style="fill:none;stroke-width:3;stroke-linecap:round;stroke-linejoin:miter;stroke:rgb(100%,52.549744%,0%);stroke-opacity:1;stroke-miterlimit:10;"
         d="M 0.00005 -0.000125 C 0.00005 -3.007937 -2.43745 -5.445437 -5.445262 -5.445437 C -8.453075 -5.445437 -10.894481 -3.007937 -10.894481 -0.000125 C -10.894481 3.007688 -8.453075 5.445188 -5.445262 5.445188 C -2.43745 5.445188 0.00005 3.007688 0.00005 -0.000125 Z M 0.00005 -0.000125 "
         transform="matrix(1,0,0,-1,24.0937,18.703)"
         id="path19" />
    </g>
    <path
       style="fill:none;stroke-width:3;stroke-linecap:round;stroke-linejoin:miter;stroke:rgb(100%,52.549744%,0%);stroke-opacity:1;stroke-miterlimit:10;"
       d="M 0.0010375 -0.00105 L 0.0010375 6.7177 "
       transform="matrix(1,0,0,-1,18.6474,8.2177)"
       id="path23" />
    <g
       clip-path="url(#clip2)"
       clip-rule="nonzero"
       id="g27">
      <path
         style="fill:none;stroke-width:3;stroke-linecap:round;stroke-linejoin:miter;stroke:rgb(100%,52.549744%,0%);stroke-opacity:1;stroke-miterlimit:10;"
         d="M 0.0010375 0.00183125 L 0.0010375 6.716675 "
         transform="matrix(1,0,0,-1,18.6474,35.7948)"
         id="path25" />
    </g>
    <g
       clip-path="url(#clip3)"
       clip-rule="nonzero"
       id="g33">
      <path
         style="fill:none;stroke-width:3;stroke-linecap:round;stroke-linejoin:miter;stroke:rgb(100%,52.549744%,0%);stroke-opacity:1;stroke-miterlimit:10;"
         d="M 0.0010375 -0.0010375 L 4.751038 4.748963 "
         transform="matrix(1,0,0,-1,26.0224,11.2724)"
         id="path29" />
      <path
         style="fill:none;stroke-width:3;stroke-linecap:round;stroke-linejoin:miter;stroke:rgb(100%,52.549744%,0%);stroke-opacity:1;stroke-miterlimit:10;"
         d="M 0.0010375 -0.0010375 L 4.751038 4.748963 "
         transform="matrix(1,0,0,-1,6.5224,30.7724)"
         id="path31" />
    </g>
    <g
       clip-path="url(#clip4)"
       clip-rule="nonzero"
       id="g37">
      <path
         style="fill:none;stroke-width:3;stroke-linecap:round;stroke-linejoin:miter;stroke:rgb(100%,52.549744%,0%);stroke-opacity:1;stroke-miterlimit:10;"
         d="M 0.001025 -0.0010375 L 6.719775 -0.0010375 "
         transform="matrix(1,0,0,-1,29.0771,18.6474)"
         id="path35" />
    </g>
    <path
       style="fill:none;stroke-width:3;stroke-linecap:round;stroke-linejoin:miter;stroke:rgb(100%,52.549744%,0%);stroke-opacity:1;stroke-miterlimit:10;"
       d="M 0 -0.0010375 L 6.71875 -0.0010375 "
       transform="matrix(1,0,0,-1,1.5,18.6474)"
       id="path39" />
    <g
       clip-path="url(#clip5)"
       clip-rule="nonzero"
       id="g45">
      <path
         style="fill:none;stroke-width:3;stroke-linecap:round;stroke-linejoin:miter;stroke:rgb(100%,52.549744%,0%);stroke-opacity:1;stroke-miterlimit:10;"
         d="M 0.0010375 -0.0010375 L 4.751038 -4.751037 "
         transform="matrix(1,0,0,-1,26.0224,26.0224)"
         id="path41" />
      <path
         style="fill:none;stroke-width:3;stroke-linecap:round;stroke-linejoin:miter;stroke:rgb(100%,52.549744%,0%);stroke-opacity:1;stroke-miterlimit:10;"
         d="M 0.0010375 -0.0010375 L 4.751038 -4.751037 "
         transform="matrix(1,0,0,-1,6.5224,6.5224)"
         id="path43" />
    </g>
  </g>
</svg>
